<?xml version="1.0" encoding="UTF-8" standalone="no"?><!DOCTYPE score-partwise PUBLIC "-//Recordare//DTD MusicXML 3.1Partwise//EN" "http://www.musicxml.org/dtds/partwise.dtd"><score-partwise version="3.1"><part-list><score-part id="P1"><part-name>Piano R</part-name></score-part></part-list><part id="P1"><measure number="0"><attributes><divisions>12</divisions><time><beats>3</beats><beat-type>4</beat-type></time></attributes><note><rest measure="yes" /><duration>6</duration><voice>1</voice></note><backup><duration>24</duration></backup><note><rest measure="yes" /><duration>6</duration><voice>2</voice></note><note><pitch><step>C</step><octave>5</octave><alter>0</alter></pitch><duration>24</duration><type>half</type><voice>2</voice></note><note><pitch><step>D</step><octave>4</octave><alter>0</alter></pitch><duration>6</duration><type>eighth</type><voice>2</voice></note><note><pitch><step>F</step><octave>4</octave><alter>0</alter></pitch><duration>6</duration><type>eighth</type><voice>2</voice><beam number="1">begin</beam></note><note><pitch><step>D</step><octave>4</octave><alter>0</alter></pitch><duration>6</duration><type>eighth</type><voice>2</voice><beam number="1">continue</beam></note><note><pitch><step>F</step><octave>4</octave><alter>0</alter></pitch><duration>6</duration><type>eighth</type><voice>2</voice><beam number="1">continue</beam></note><note><pitch><step>D</step><octave>4</octave><alter>0</alter></pitch><duration>6</duration><type>eighth</type><voice>2</voice><beam number="1">end</beam></note></measure><measure number="1"><attributes><divisions>12</divisions></attributes><note><rest measure="yes" /><duration>6</duration><voice>2</voice></note><note><rest measure="yes" /><duration>6</duration><voice>2</voice></note><note><pitch><step>D</step><octave>4</octave><alter>0</alter></pitch><duration>6</duration><type>eighth</type><voice>2</voice></note><note><pitch><step>F</step><octave>4</octave><alter>0</alter></pitch><duration>6</duration><type>eighth</type><voice>2</voice><beam number="1">begin</beam></note><note><pitch><step>D</step><octave>4</octave><alter>0</alter></pitch><duration>6</duration><type>eighth</type><voice>2</voice><beam number="1">continue</beam></note><note><pitch><step>F</step><octave>4</octave><alter>0</alter></pitch><duration>6</duration><type>eighth</type><voice>2</voice><beam number="1">continue</beam></note><note><pitch><step>D</step><octave>4</octave><alter>0</alter></pitch><duration>6</duration><type>eighth</type><voice>2</voice><beam number="1">end</beam></note></measure><measure number="2"><attributes><divisions>12</divisions></attributes><note><rest measure="yes" /><duration>6</duration><voice>2</voice></note><backup><duration>24</duration></backup><note><rest measure="yes" /><duration>6</duration><voice>3</voice></note><note><pitch><step>C</step><octave>5</octave><alter>0</alter></pitch><duration>24</duration><type>half</type><voice>3</voice></note><note><pitch><step>D</step><octave>4</octave><alter>0</alter></pitch><duration>6</duration><type>eighth</type><voice>3</voice></note><note><pitch><step>E</step><octave>4</octave><alter>0</alter></pitch><duration>6</duration><type>eighth</type><voice>3</voice><beam number="1">begin</beam></note><note><pitch><step>D</step><octave>4</octave><alter>0</alter></pitch><duration>6</duration><type>eighth</type><voice>3</voice><beam number="1">continue</beam></note><note><pitch><step>E</step><octave>4</octave><alter>0</alter></pitch><duration>6</duration><type>eighth</type><voice>3</voice><beam number="1">continue</beam></note><note><pitch><step>D</step><octave>4</octave><alter>0</alter></pitch><duration>6</duration><type>eighth</type><voice>3</voice><beam number="1">end</beam></note></measure><measure number="3"><attributes><divisions>12</divisions></attributes><note><pitch><step>D</step><octave>4</octave><alter>0</alter></pitch><duration>24</duration><type>half</type><voice>3</voice></note></measure><measure number="0"><attributes><divisions>12</divisions><time><beats>3</beats><beat-type>4</beat-type></time></attributes><note><pitch><step>B</step><octave>5</octave><alter>0</alter></pitch><duration>12</duration><type>quarter</type><voice>3</voice></note><note><pitch><step>A</step><octave>6</octave><alter>0</alter></pitch><duration>12</duration><type>quarter</type><voice>3</voice></note><note><pitch><step>F</step><octave>5</octave><alter>0</alter></pitch><duration>12</duration><type>quarter</type><voice>3</voice></note></measure><measure number="1"><attributes><divisions>12</divisions></attributes><note><pitch><step>E</step><octave>4</octave><alter>0</alter></pitch><duration>12</duration><type>quarter</type><voice>3</voice></note><note><pitch><step>G</step><octave>5</octave><alter>0</alter></pitch><duration>12</duration><type>quarter</type><voice>3</voice></note><note><pitch><step>B</step><octave>5</octave><alter>0</alter></pitch><duration>12</duration><type>quarter</type><voice>3</voice></note></measure><measure number="2"><attributes><divisions>12</divisions></attributes><note><pitch><step>A</step><octave>5</octave><alter>0</alter></pitch><duration>12</duration><type>quarter</type><voice>3</voice></note></measure><measure number="3"><attributes><divisions>12</divisions></attributes><note><pitch><step>C</step><octave>4</octave><alter>0</alter></pitch><duration>12</duration><type>quarter</type><voice>3</voice></note><note><pitch><step>E</step><octave>5</octave><alter>0</alter></pitch><duration>12</duration><type>quarter</type><voice>3</voice></note><note><pitch><step>G</step><octave>4</octave><alter>0</alter></pitch><duration>12</duration><type>quarter</type><voice>3</voice></note></measure><measure number="0"><attributes><divisions>12</divisions></attributes><note><pitch><step>C</step><octave>5</octave><alter /></pitch><duration>12</duration><type>quarter</type><voice>3</voice></note><note><pitch><step>B</step><octave>5</octave><alter>0</alter></pitch><duration>6</duration><type>eighth</type><voice>3</voice></note><note><pitch><step>A</step><octave>5</octave><alter>0</alter></pitch><duration>6</duration><type>eighth</type><voice>3</voice><beam number="1">begin</beam></note><note><pitch><step>G</step><octave>4</octave><alter>0</alter></pitch><duration>6</duration><type>eighth</type><voice>3</voice><beam number="1">end</beam></note></measure><measure number="1"><attributes><divisions>12</divisions></attributes><note><pitch><step>F</step><octave>4</octave><alter>0</alter></pitch><duration>12</duration><type>quarter</type><voice>3</voice></note><note><pitch><step>G</step><octave>4</octave><alter>0</alter></pitch><duration>12</duration><type>quarter</type><voice>3</voice></note><note><pitch><step>A</step><octave>5</octave><alter>0</alter></pitch><duration>6</duration><type>eighth</type><voice>3</voice><beam number="1">begin</beam></note><note><pitch><step>C</step><octave>5</octave><alter>0</alter></pitch><duration>6</duration><type>eighth</type><voice>3</voice><beam number="1">end</beam></note></measure><measure number="2"><attributes><divisions>12</divisions></attributes><note><pitch><step>B</step><octave>5</octave><alter>0</alter></pitch><duration>12</duration><type>quarter</type><voice>3</voice></note><note><pitch><step>A</step><octave>5</octave><alter>0</alter></pitch><duration>12</duration><type>quarter</type><voice>3</voice></note><note><pitch><step>G</step><octave>4</octave><alter>0</alter></pitch><duration>6</duration><type>eighth</type><voice>3</voice><beam number="1">begin</beam></note><note><pitch><step>F</step><octave>4</octave><alter>0</alter></pitch><duration>6</duration><type>eighth</type><voice>3</voice><beam number="1">end</beam></note></measure><measure number="3"><attributes><divisions>12</divisions></attributes></measure><measure number="4"><attributes><divisions>12</divisions></attributes><note><pitch><step>A</step><octave>5</octave><alter>0</alter></pitch><duration>12</duration><type>quarter</type><voice>3</voice></note><note><pitch><step>G</step><octave>4</octave><alter>0</alter></pitch><duration>12</duration><type>quarter</type><voice>3</voice></note><note><pitch><step>F</step><octave>4</octave><alter>0</alter></pitch><duration>6</duration><type>eighth</type><voice>3</voice><beam number="1">begin</beam></note><note><pitch><step>E</step><octave>4</octave><alter>0</alter></pitch><duration>6</duration><type>eighth</type><voice>3</voice><beam number="1">end</beam></note></measure><measure number="0"><attributes><divisions>12</divisions></attributes><note><pitch><step>F</step><octave>4</octave><alter>0</alter></pitch><duration>6</duration><type>eighth</type><voice>3</voice><beam number="1">begin</beam></note><note><pitch><step>C</step><octave>5</octave><alter>0</alter></pitch><duration>12</duration><type>quarter</type><voice>3</voice></note><note><chord /><pitch><step>C</step><octave>5</octave><alter>0</alter></pitch><duration>12</duration><type>quarter</type><voice>3</voice></note><note><pitch><step>A</step><octave>6</octave><alter>0</alter></pitch><duration>6</duration><type>eighth</type><voice>3</voice><beam number="1">continue</beam></note><backup><duration>12</duration></backup><note><pitch><step>F</step><octave>5</octave><alter>0</alter></pitch><duration>12</duration><type>quarter</type><voice>4</voice></note><backup><duration>12</duration></backup><note><pitch><step>F</step><octave>5</octave><alter>0</alter></pitch><duration>12</duration><type>quarter</type><voice>5</voice></note><note><pitch><step>C</step><octave>5</octave><alter>0</alter></pitch><duration>12</duration><type>quarter</type><voice>5</voice></note><note><chord /><pitch><step>C</step><octave>5</octave><alter>0</alter></pitch><duration>12</duration><type>quarter</type><voice>5</voice></note><note><pitch><step>F</step><octave>5</octave><alter>0</alter></pitch><duration>12</duration><type>quarter</type><voice>5</voice></note></measure><measure number="1"><attributes><divisions>12</divisions></attributes><note><pitch><step>B</step><octave>5</octave><alter>0</alter></pitch><duration>6</duration><type>eighth</type><voice>5</voice><beam number="1">begin</beam></note><note><pitch><step>F</step><octave>5</octave><alter>0</alter></pitch><duration>6</duration><type>eighth</type><voice>5</voice><beam number="1">continue</beam></note><note><pitch><step>A</step><octave>6</octave><alter>0</alter></pitch><duration>6</duration><type>eighth</type><voice>5</voice><beam number="1">continue</beam></note></measure><measure number="2"><attributes><divisions>12</divisions></attributes><note><pitch><step>F</step><octave>5</octave><alter>0</alter></pitch><duration>6</duration><type>eighth</type><voice>5</voice><beam number="1">end</beam></note><note><pitch><step>A</step><octave>6</octave><alter>0</alter></pitch><duration>12</duration><type>quarter</type><voice>5</voice></note></measure><measure number="3"><attributes><divisions>12</divisions></attributes><note><pitch><step>E</step><octave>4</octave><alter>0</alter></pitch><duration>12</duration><type>quarter</type><voice>5</voice></note><note><pitch><step>D</step><octave>5</octave><alter>0</alter></pitch><duration>6</duration><type>eighth</type><voice>5</voice><beam number="1">continue</beam></note><note><pitch><step>G</step><octave>5</octave><alter>0</alter></pitch><duration>6</duration><type>eighth</type><voice>5</voice><beam number="1">continue</beam></note></measure><measure number="4"><attributes><divisions>12</divisions></attributes><note><pitch><step>D</step><octave>5</octave><alter>0</alter></pitch><duration>6</duration><type>eighth</type><voice>5</voice><beam number="1">end</beam></note><note><pitch><step>G</step><octave>5</octave><alter>0</alter></pitch><duration>12</duration><type>quarter</type><voice>5</voice></note></measure><measure number="5"><attributes><divisions>12</divisions></attributes><note><pitch><step>A</step><octave>5</octave><alter>0</alter></pitch><duration>12</duration><type>quarter</type><voice>5</voice></note><backup><duration>12</duration></backup><note><pitch><step>A</step><octave>5</octave><alter>0</alter></pitch><duration>6</duration><type>eighth</type><voice>6</voice><beam number="1">begin</beam></note><note><pitch><step>E</step><octave>5</octave><alter>0</alter></pitch><duration>6</duration><type>eighth</type><voice>6</voice><beam number="1">continue</beam></note><backup><duration>12</duration></backup><note><pitch><step>E</step><octave>5</octave><alter>0</alter></pitch><duration>12</duration><type>quarter</type><voice>7</voice></note><note><pitch><step>G</step><octave>5</octave><alter>0</alter></pitch><duration>12</duration><type>quarter</type><voice>7</voice></note><note><chord /><pitch><step>G</step><octave>5</octave><alter>0</alter></pitch><duration>12</duration><type>quarter</type><voice>7</voice></note></measure><measure number="6"><attributes><divisions>12</divisions></attributes><note><pitch><step>E</step><octave>5</octave><alter>0</alter></pitch><duration>12</duration><type>quarter</type><voice>7</voice></note><backup><duration>12</duration></backup><note><pitch><step>E</step><octave>5</octave><alter>0</alter></pitch><duration>3</duration><type>eighth</type><voice>8</voice><beam number="1">continue</beam></note><backup><duration>12</duration></backup><note><pitch><step>E</step><octave>5</octave><alter>0</alter></pitch><duration>12</duration><type>quarter</type><voice>9</voice></note><note><pitch><step>G</step><octave>5</octave><alter>0</alter></pitch><duration>12</duration><type>quarter</type><voice>9</voice></note><note><chord /><pitch><step>G</step><octave>5</octave><alter>0</alter></pitch><duration>12</duration><type>quarter</type><voice>9</voice></note></measure><measure number="7"><attributes><divisions>12</divisions></attributes><note><pitch><step>E</step><octave>5</octave><alter>0</alter></pitch><duration>6</duration><type>eighth</type><voice>9</voice><beam number="1">end</beam></note><backup><duration>12</duration></backup><note><pitch><step>E</step><octave>5</octave><alter>0</alter></pitch><duration>12</duration><type>quarter</type><voice>10</voice></note></measure><measure number="8"><attributes><divisions>12</divisions></attributes><note><pitch><step>D</step><octave>4</octave><alter>0</alter></pitch><duration>6</duration><type>eighth</type><voice>10</voice><beam number="1">begin</beam></note><backup><duration>12</duration></backup><note><pitch><step>D</step><octave>4</octave><alter>0</alter></pitch><duration>12</duration><type>quarter</type><voice>11</voice></note></measure><measure number="9"><attributes><divisions>12</divisions></attributes><note><pitch><step>A</step><octave>5</octave><alter>0</alter></pitch><duration>12</duration><type>quarter</type><voice>11</voice></note><backup><duration>12</duration></backup><note><pitch><step>A</step><octave>5</octave><alter>0</alter></pitch><duration>6</duration><type>eighth</type><voice>12</voice><beam number="1">continue</beam></note><note><pitch><step>F</step><octave>5</octave><alter>0</alter></pitch><duration>6</duration><type>eighth</type><voice>12</voice><beam number="1">continue</beam></note><backup><duration>12</duration></backup><note><pitch><step>F</step><octave>5</octave><alter>0</alter></pitch><duration>12</duration><type>quarter</type><voice>13</voice></note><note><pitch><step>A</step><octave>5</octave><alter>0</alter></pitch><duration>12</duration><type>quarter</type><voice>13</voice></note><backup><duration>12</duration></backup><note><pitch><step>A</step><octave>5</octave><alter>0</alter></pitch><duration>6</duration><type>eighth</type><voice>14</voice><beam number="1">end</beam></note><note><pitch><step>F</step><octave>5</octave><alter>0</alter></pitch><duration>12</duration><type>quarter</type><voice>14</voice></note></measure><measure number="10"><attributes><divisions>12</divisions></attributes></measure></part></score-partwise>