<?xml version="1.0" encoding="UTF-8" standalone="no"?><!DOCTYPE score-partwise PUBLIC "-//Recordare//DTD MusicXML 3.1Partwise//EN" "http://www.musicxml.org/dtds/partwise.dtd"><score-partwise version="3.1"><part-list><score-part id="P1"><part-name>Instrument 1</part-name></score-part><score-part id="P2"><part-name>Instrument 2</part-name></score-part></part-list><part id="P1"><measure number="1"><attributes><divisions>12</divisions><time><beats>3</beats><beat-type>4</beat-type></time><clef><sign>F</sign><line>4</line></clef></attributes><note><pitch><step>E</step><octave>2</octave><alter>0</alter></pitch><duration>3</duration><type>eighth</type><voice>1</voice><beam number="1">begin</beam></note></measure><measure number="2"><attributes><divisions>12</divisions></attributes><note><rest measure="yes" /><duration>24</duration><voice>1</voice></note><backup><duration>24</duration></backup><note><pitch><step>A</step><octave>3</octave><alter>0</alter></pitch><duration>6</duration><type>eighth</type><voice>2</voice><beam number="1">begin</beam></note></measure><measure number="3"><attributes><divisions>12</divisions></attributes><note><pitch><step>C</step><octave>4</octave><alter>0</alter></pitch><duration>6</duration><type>eighth</type><voice>1</voice><beam number="1">begin</beam></note><note><pitch><step>B</step><octave>3</octave><alter>0</alter></pitch><duration>0</duration><type>eighth</type><voice>1</voice><beam number="1">begin</beam></note><note><rest measure="yes" /><duration>24</duration><voice>1</voice></note><backup><duration>24</duration></backup><note><pitch><step>A</step><octave>3</octave><alter>0</alter></pitch><duration>0</duration><type>eighth</type><voice>2</voice><beam number="1">begin</beam></note><note><pitch><step>G</step><octave>3</octave><alter>0</alter></pitch><duration>12</duration><type>quarter</type><voice>2</voice></note><backup><duration>12</duration></backup><note><pitch><step>G</step><octave>3</octave><alter>0</alter></pitch><duration>6</duration><type>eighth</type><voice>3</voice><beam number="1">end</beam></note><note><rest measure="yes" /><duration>24</duration><voice>3</voice></note><backup><duration>24</duration></backup><note><pitch><step>A</step><octave>3</octave><alter>0</alter></pitch><duration>6</duration><type>eighth</type><voice>1</voice><beam number="1">begin</beam></note><note><rest measure="yes" /><duration>12</duration><voice>1</voice></note></measure><measure number="4"><attributes><divisions>12</divisions></attributes><note><pitch><step>B</step><octave>2</octave><alter>0</alter></pitch><duration>12</duration><type>quarter</type><voice>1</voice></note><backup><duration>12</duration></backup><note><pitch><step>B</step><octave>2</octave><alter>0</alter></pitch><duration>6</duration><type>eighth</type><voice>2</voice><beam number="1">begin</beam></note><note><pitch><step>B</step><octave>3</octave><alter>0</alter></pitch><duration>12</duration><type>quarter</type><voice>2</voice></note></measure><measure number="5"><attributes><divisions>12</divisions></attributes><note><pitch><step>D</step><octave>4</octave><alter>0</alter></pitch><duration>12</duration><type>quarter</type><voice>1</voice></note><note><pitch><step>C</step><octave>4</octave><alter>0</alter></pitch><duration>6</duration><type>eighth</type><voice>1</voice><beam number="1">begin</beam></note><backup><duration>6</duration></backup><note><pitch><step>C</step><octave>4</octave><alter>0</alter></pitch><duration>3</duration><type>eighth</type><voice>2</voice><beam number="1">begin</beam></note><note><pitch><step>B</step><octave>3</octave><alter>0</alter></pitch><duration>6</duration><type>eighth</type><voice>2</voice><beam number="1">end</beam></note><backup><duration>6</duration></backup><note><pitch><step>B</step><octave>3</octave><alter>0</alter></pitch><duration>3</duration><type>eighth</type><voice>3</voice><beam number="1">begin</beam></note><note><rest measure="yes" /><duration>24</duration><voice>3</voice></note><backup><duration>24</duration></backup><note><pitch><step>A</step><octave>3</octave><alter>0</alter></pitch><duration>3</duration><type>eighth</type><voice>1</voice><beam number="1">begin</beam></note><note><pitch><step>B</step><octave>3</octave><alter>0</alter></pitch><duration>1</duration><type>eighth</type><voice>1</voice><beam number="1">begin</beam></note></measure><measure number="6"><attributes><divisions>12</divisions></attributes></measure><measure number="7"><attributes><divisions>12</divisions><time><beats>4</beats><beat-type>4</beat-type></time></attributes><note><rest measure="yes" /><duration>24</duration><voice>1</voice></note><backup><duration>24</duration></backup><note><pitch><step>C</step><octave>4</octave><alter>0</alter></pitch><duration>12</duration><type>quarter</type><voice>2</voice></note><note><pitch><step>B</step><octave>3</octave><alter>0</alter></pitch><duration>12</duration><type>quarter</type><voice>2</voice></note><note><pitch><step>A</step><octave>3</octave><alter>0</alter></pitch><duration>12</duration><type>quarter</type><voice>2</voice></note><note><rest measure="yes" /><duration>24</duration><voice>2</voice></note><backup><duration>24</duration></backup><note><pitch><step>A</step><octave>3</octave><alter>0</alter></pitch><duration>6</duration><type>eighth</type><voice>3</voice><beam number="1">begin</beam></note><note><pitch><step>D</step><octave>4</octave><alter>0</alter></pitch><duration>12</duration><type>quarter</type><voice>3</voice></note><note><pitch><step>C</step><octave>4</octave><alter>0</alter></pitch><duration>3</duration><type>eighth</type><voice>3</voice><beam number="1">begin</beam></note><backup><duration>3</duration></backup><note><rest measure="yes" /><duration>24</duration><voice>1</voice></note><backup><duration>24</duration></backup><note><pitch><step>B</step><octave>3</octave><alter>0</alter></pitch><duration>3</duration><type>eighth</type><voice>2</voice><beam number="1">begin</beam></note><backup><duration>3</duration></backup><note><pitch><step>C</step><octave>4</octave><alter>0</alter></pitch><duration>1</duration><type>eighth</type><voice>3</voice><beam number="1">begin</beam></note><note><pitch><step>A</step><octave>3</octave><alter>0</alter></pitch><duration>0</duration><type>eighth</type><voice>3</voice><beam number="1">begin</beam></note><note><pitch><step>B</step><octave>3</octave><alter>0</alter></pitch><duration>6</duration><type>eighth</type><voice>3</voice><beam number="1">begin</beam></note><note><pitch><step>F</step><octave>1</octave><alter>0</alter></pitch><duration>1</duration><type>eighth</type><voice>3</voice><beam number="1">begin</beam></note><note><pitch><step>D</step><octave>4</octave><alter>0</alter></pitch><duration>12</duration><type>quarter</type><voice>3</voice></note><backup><duration>12</duration></backup><note><pitch><step>D</step><octave>4</octave><alter>0</alter></pitch><duration>6</duration><type>eighth</type><voice>1</voice><beam number="1">begin</beam></note><note><rest measure="yes" /><duration>24</duration><voice>1</voice></note><backup><duration>24</duration></backup><note><pitch><step>C</step><octave>4</octave><alter>0</alter></pitch><duration>1</duration><type>eighth</type><voice>2</voice><beam number="1">begin</beam></note><note><rest measure="yes" /><duration>24</duration><voice>2</voice></note><backup><duration>24</duration></backup><note><pitch><step>B</step><octave>3</octave><alter>0</alter></pitch><duration>12</duration><type>quarter</type><voice>3</voice></note><backup><duration>12</duration></backup><note><pitch><step>G</step><octave>1</octave><alter>0</alter></pitch><duration>3</duration><type>eighth</type><voice>1</voice><beam number="1">begin</beam></note><note><pitch><step>A</step><octave>3</octave><alter>0</alter></pitch><duration>12</duration><type>quarter</type><voice>1</voice></note></measure><measure number="8"><attributes><divisions>12</divisions><clef><sign>G</sign><line>2</line></clef></attributes><note><pitch><step>F</step><octave>5</octave><alter>0</alter></pitch><duration>6</duration><type>eighth</type><voice>1</voice><beam number="1">begin</beam></note><note><pitch><step>E</step><octave>3</octave><alter>AccidentalTypes.NATURAL</alter></pitch><duration>12</duration><type>quarter</type><voice>1</voice></note><backup><duration>12</duration></backup><note><pitch><step>E</step><octave>5</octave><alter>AccidentalTypes.NATURAL</alter></pitch><duration>12</duration><type>quarter</type><voice>2</voice></note><backup><duration>12</duration></backup><note><pitch><step>E</step><octave>3</octave><alter>AccidentalTypes.NATURAL</alter></pitch><duration>1</duration><type>eighth</type><voice>3</voice><beam number="1">begin</beam></note></measure><measure number="9"><attributes><divisions>12</divisions><time><beats>4</beats><beat-type>4</beat-type></time></attributes></measure><measure number="10"><attributes><divisions>12</divisions></attributes><note><pitch><step>D</step><octave>5</octave><alter>0</alter></pitch><duration>1</duration><type>eighth</type><voice>1</voice><beam number="1">begin</beam></note><note><pitch><step>D</step><octave>5</octave><alter>0</alter></pitch><duration>1</duration><type>eighth</type><voice>1</voice><beam number="1">begin</beam></note><note><pitch><step>D</step><octave>5</octave><alter>0</alter></pitch><duration>6</duration><type>eighth</type><voice>1</voice><beam number="1">begin</beam></note></measure><measure number="11"><attributes><divisions>12</divisions></attributes><note><pitch><step>B</step><octave>4</octave><alter>0</alter></pitch><duration>3</duration><type>eighth</type><voice>1</voice><beam number="1">begin</beam></note><note><pitch><step>G</step><octave>4</octave><alter>0</alter></pitch><duration>3</duration><type>eighth</type><voice>1</voice><beam number="1">continue</beam></note><note><pitch><step>D</step><octave>5</octave><alter>0</alter></pitch><duration>6</duration><type>eighth</type><voice>1</voice><beam number="1">begin</beam></note><note><pitch><step>D</step><octave>5</octave><alter>0</alter></pitch><duration>0</duration><type>eighth</type><voice>1</voice><beam number="1">begin</beam></note><note><pitch><step>D</step><octave>5</octave><alter>0</alter></pitch><duration>6</duration><type>eighth</type><voice>1</voice><beam number="1">begin</beam></note><note><pitch><step>D</step><octave>5</octave><alter>0</alter></pitch><duration>6</duration><type>eighth</type><voice>1</voice><beam number="1">begin</beam></note><backup><duration>6</duration></backup><note><pitch><step>D</step><octave>5</octave><alter>0</alter></pitch><duration>3</duration><type>eighth</type><voice>2</voice><beam number="1">begin</beam></note><note><pitch><step>D</step><octave>5</octave><alter>0</alter></pitch><duration>6</duration><type>eighth</type><voice>2</voice><beam number="1">begin</beam></note><note><pitch><step>B</step><octave>4</octave><alter>0</alter></pitch><duration>0</duration><type>eighth</type><voice>2</voice><beam number="1">continue</beam></note></measure><measure number="12"><attributes><divisions>12</divisions></attributes></measure><measure number="13"><attributes><divisions>12</divisions><time><beats>4</beats><beat-type>4</beat-type></time></attributes><note><pitch><step>G</step><octave>4</octave><alter>0</alter></pitch><duration>6</duration><type>eighth</type><voice>1</voice><beam number="1">begin</beam></note><note><pitch><step>D</step><octave>5</octave><alter>0</alter></pitch><duration>12</duration><type>quarter</type><voice>1</voice></note></measure><measure number="14"><attributes><divisions>12</divisions><clef><sign>F</sign><line>4</line></clef></attributes><note><pitch><step>B</step><octave>2</octave><alter>0</alter></pitch><duration>12</duration><type>quarter</type><voice>1</voice></note><note><rest measure="yes" /><duration>48</duration><voice>1</voice></note><backup><duration>48</duration></backup><note><pitch><step>G</step><octave>2</octave><alter>0</alter></pitch><duration>12</duration><type>quarter</type><voice>2</voice></note><note><pitch><step>F</step><octave>2</octave><alter>0</alter></pitch><duration>12</duration><type>quarter</type><voice>2</voice></note><backup><duration>12</duration></backup><note><pitch><step>F</step><octave>3</octave><alter>0</alter></pitch><duration>6</duration><type>eighth</type><voice>3</voice><beam number="1">begin</beam></note><note><pitch><step>E</step><octave>2</octave><alter>0</alter></pitch><duration>12</duration><type>quarter</type><voice>3</voice></note><backup><duration>12</duration></backup><note><pitch><step>E</step><octave>2</octave><alter>0</alter></pitch><duration>6</duration><type>eighth</type><voice>1</voice><beam number="1">begin</beam></note><note><pitch><step>E</step><octave>2</octave><alter>0</alter></pitch><duration>6</duration><type>eighth</type><voice>1</voice><beam number="1">end</beam></note><note><pitch><step>D</step><octave>3</octave><alter>0</alter></pitch><duration>24</duration><type>half</type><voice>1</voice></note><note><chord /><pitch><step>D</step><octave>2</octave><alter>0</alter></pitch><duration>24</duration><type>half</type><voice>1</voice></note><note><pitch><step>C</step><octave>2</octave><alter>0</alter></pitch><duration>6</duration><type>eighth</type><voice>1</voice><beam number="1">end</beam></note><note><pitch><step>B</step><octave>2</octave><alter>0</alter></pitch><duration>6</duration><type>eighth</type><voice>1</voice><beam number="1">begin</beam></note><backup><duration>6</duration></backup><note><pitch><step>B</step><octave>2</octave><alter>0</alter></pitch><duration>0</duration><type>eighth</type><voice>2</voice><beam number="1">begin</beam></note><note><chord /><pitch><step>B</step><octave>1</octave><alter>0</alter></pitch><duration>0</duration><type>eighth</type><voice>2</voice><beam number="1">begin</beam></note><note><pitch><step>A</step><octave>3</octave><alter>0</alter></pitch><duration>6</duration><type>eighth</type><voice>2</voice><beam number="1">begin</beam></note><backup><duration>6</duration></backup><note><pitch><step>A</step><octave>3</octave><alter>0</alter></pitch><duration>3</duration><type>eighth</type><voice>3</voice><beam number="1">begin</beam></note></measure><measure number="15"><attributes><divisions>12</divisions></attributes></measure><measure number="16"><attributes><divisions>12</divisions></attributes></measure><measure number="17"><attributes><divisions>12</divisions></attributes><note><pitch><step>G</step><octave>3</octave><alter>0</alter></pitch><duration>12</duration><type>quarter</type><voice>1</voice></note><note><pitch><step>F</step><octave>3</octave><alter>0</alter></pitch><duration>6</duration><type>eighth</type><voice>1</voice><beam number="1">begin</beam></note><note><pitch><step>D</step><octave>3</octave><alter>0</alter></pitch><duration>3</duration><type>eighth</type><voice>1</voice><beam number="1">begin</beam></note><note><pitch><step>B</step><octave>2</octave><alter>0</alter></pitch><duration>3</duration><type>eighth</type><voice>1</voice><beam number="1">begin</beam></note></measure><measure number="18"><attributes><divisions>12</divisions></attributes><note><pitch><step>G</step><octave>2</octave><alter>0</alter></pitch><duration>1</duration><type>eighth</type><voice>1</voice><beam number="1">begin</beam></note><note><rest measure="yes" /><duration>24</duration><voice>1</voice></note></measure><measure number="19"><attributes><divisions>12</divisions></attributes><note><pitch><step>F</step><octave>3</octave><alter>0</alter></pitch><duration>6</duration><type>eighth</type><voice>1</voice><beam number="1">begin</beam></note><note><pitch><step>D</step><octave>3</octave><alter>0</alter></pitch><duration>12</duration><type>quarter</type><voice>1</voice></note><note><pitch><step>B</step><octave>2</octave><alter>0</alter></pitch><duration>12</duration><type>quarter</type><voice>1</voice></note></measure><measure number="20"><attributes><divisions>12</divisions><time><beats>4</beats><beat-type>4</beat-type></time></attributes><note><pitch><step>G</step><octave>2</octave><alter>0</alter></pitch><duration>3</duration><type>eighth</type><voice>1</voice><beam number="1">begin</beam></note><note><rest measure="yes" /><duration>24</duration><voice>1</voice></note><backup><duration>24</duration></backup><note><pitch><step>A</step><octave>3</octave><alter>0</alter></pitch><duration>6</duration><type>eighth</type><voice>2</voice><beam number="1">begin</beam></note></measure><measure number="21"><attributes><divisions>12</divisions></attributes><note><pitch><step>F</step><octave>3</octave><alter>0</alter></pitch><duration>6</duration><type>eighth</type><voice>1</voice><beam number="1">begin</beam></note><note><pitch><step>D</step><octave>3</octave><alter>0</alter></pitch><duration>6</duration><type>eighth</type><voice>1</voice><beam number="1">begin</beam></note><note><pitch><step>B</step><octave>2</octave><alter>0</alter></pitch><duration>12</duration><type>quarter</type><voice>1</voice></note></measure><measure number="22"><attributes><divisions>12</divisions></attributes></measure><measure number="23"><attributes><divisions>12</divisions></attributes></measure><measure number="24"><attributes><divisions>12</divisions><time><beats>3</beats><beat-type>4</beat-type></time><clef><sign>G</sign><line>2</line></clef></attributes><note><rest measure="yes" /><duration>24</duration><voice>1</voice></note><backup><duration>24</duration></backup><note><pitch><step>G</step><octave>4</octave><alter>0</alter></pitch><duration>12</duration><type>quarter</type><voice>2</voice></note><note><pitch><step>B</step><octave>4</octave><alter>0</alter></pitch><duration>12</duration><type>quarter</type><voice>2</voice></note><backup><duration>12</duration></backup><note><pitch><step>B</step><octave>4</octave><alter>0</alter></pitch><duration>6</duration><type>eighth</type><voice>3</voice><beam number="1">continue</beam></note><note><rest measure="yes" /><duration>24</duration><voice>3</voice></note><note><pitch><step>B</step><octave>4</octave><alter>0</alter></pitch><duration>3</duration><type>eighth</type><voice>3</voice><beam number="1">begin</beam></note><backup><duration>3</duration></backup><note><pitch><step>B</step><octave>4</octave><alter>0</alter></pitch><duration>6</duration><type>eighth</type><voice>1</voice><beam number="1">begin</beam></note><backup><duration>6</duration></backup><note><pitch><step>B</step><octave>4</octave><alter>0</alter></pitch><duration>1</duration><type>eighth</type><voice>2</voice><beam number="1">begin</beam></note><note><pitch><step>B</step><octave>4</octave><alter>0</alter></pitch><duration>1</duration><type>eighth</type><voice>2</voice><beam number="1">begin</beam></note><backup><duration>1</duration></backup><note><pitch><step>B</step><octave>4</octave><alter>0</alter></pitch><duration>0</duration><type>eighth</type><voice>3</voice><beam number="1">begin</beam></note><note><pitch><step>D</step><octave>5</octave><alter>0</alter></pitch><duration>6</duration><type>eighth</type><voice>3</voice><beam number="1">begin</beam></note><backup><duration>6</duration></backup><note><pitch><step>D</step><octave>5</octave><alter>0</alter></pitch><duration>3</duration><type>eighth</type><voice>1</voice><beam number="1">continue</beam></note><note><pitch><step>D</step><octave>5</octave><alter>0</alter></pitch><duration>1</duration><type>eighth</type><voice>1</voice><beam number="1">begin</beam></note><backup><duration>1</duration></backup><note><pitch><step>D</step><octave>5</octave><alter>0</alter></pitch><duration>0</duration><type>eighth</type><voice>2</voice><beam number="1">begin</beam></note><note><rest measure="yes" /><duration>24</duration><voice>2</voice></note><backup><duration>24</duration></backup><note><pitch><step>A</step><octave>5</octave><alter>0</alter></pitch><duration>6</duration><type>eighth</type><voice>3</voice><beam number="1">begin</beam></note><note><pitch><step>D</step><octave>5</octave><alter>0</alter></pitch><duration>6</duration><type>eighth</type><voice>3</voice><beam number="1">begin</beam></note><backup><duration>6</duration></backup><note><pitch><step>D</step><octave>5</octave><alter>0</alter></pitch><duration>3</duration><type>eighth</type><voice>1</voice><beam number="1">begin</beam></note><note><pitch><step>D</step><octave>5</octave><alter>0</alter></pitch><duration>6</duration><type>eighth</type><voice>1</voice></note><note><chord /><pitch><step>D</step><octave>5</octave><alter>0</alter></pitch><duration>6</duration><type>eighth</type><voice>1</voice></note><backup><duration>6</duration></backup><note><pitch><step>A</step><octave>5</octave><alter>0</alter></pitch><duration>3</duration><type>eighth</type><voice>2</voice><beam number="1">continue</beam></note><backup><duration>3</duration></backup><note><rest measure="yes" /><duration>24</duration><voice>3</voice></note><backup><duration>24</duration></backup><note><pitch><step>D</step><octave>5</octave><alter>0</alter></pitch><duration>1</duration><type>eighth</type><voice>1</voice><beam number="1">begin</beam></note><note><pitch><step>D</step><octave>5</octave><alter>0</alter></pitch><duration>12</duration><type>quarter</type><voice>1</voice></note><backup><duration>12</duration></backup><note><pitch><step>D</step><octave>5</octave><alter>0</alter></pitch><duration>3</duration><type>eighth</type><voice>2</voice><beam number="1">end</beam></note><note><pitch><step>G</step><octave>5</octave><alter>0</alter></pitch><duration>0</duration><type>eighth</type><voice>2</voice><beam number="1">begin</beam></note><note><pitch><step>F</step><octave>6</octave><alter>0</alter></pitch><duration>3</duration><type>eighth</type><voice>2</voice><beam number="1">begin</beam></note><backup><duration>3</duration></backup><note><pitch><step>F</step><octave>6</octave><alter>0</alter></pitch><duration>0</duration><type>eighth</type><voice>3</voice><beam number="1">begin</beam></note><note><pitch><step>G</step><octave>5</octave><alter>0</alter></pitch><duration>3</duration><type>eighth</type><voice>3</voice><beam number="1">begin</beam></note><note><rest measure="yes" /><duration>24</duration><voice>3</voice></note><backup><duration>24</duration></backup><note><pitch><step>A</step><octave>5</octave><alter>0</alter></pitch><duration>6</duration><type>eighth</type><voice>1</voice><beam number="1">begin</beam></note><note><pitch><step>G</step><octave>5</octave><alter>0</alter></pitch><duration>3</duration><type>eighth</type><voice>1</voice><beam number="1">begin</beam></note><note><pitch><step>F</step><octave>6</octave><alter>0</alter></pitch><duration>3</duration><type>eighth</type><voice>1</voice><beam number="1">begin</beam></note><backup><duration>3</duration></backup><note><pitch><step>F</step><octave>6</octave><alter>0</alter></pitch><duration>0</duration><type>eighth</type><voice>2</voice><beam number="1">begin</beam></note><note><pitch><step>G</step><octave>5</octave><alter>0</alter></pitch><duration>6</duration><type>eighth</type><voice>2</voice><beam number="1">end</beam></note></measure><measure number="25"><attributes><divisions>12</divisions></attributes></measure></part><part id="P2"><measure number="1"><attributes><divisions>12</divisions><clef><sign>F</sign><line>4</line></clef></attributes><note><rest measure="yes" /><duration>12</duration><voice>1</voice></note><note><rest measure="yes" /><duration>48</duration><voice>1</voice></note><note><rest measure="yes" /><duration>12</duration><voice>1</voice></note><note><pitch><step>C</step><octave>4</octave><alter>0</alter></pitch><duration>6</duration><type>eighth</type><voice>1</voice><beam number="1">begin</beam></note><backup><duration>6</duration></backup><note><pitch><step>C</step><octave>4</octave><alter>0</alter></pitch><duration>1</duration><type>eighth</type><voice>2</voice><beam number="1">begin</beam></note><note><chord /><pitch><step>A</step><octave>3</octave><alter>0</alter></pitch><duration>1</duration><type>eighth</type><voice>2</voice><beam number="1">begin</beam></note><note><chord /><pitch><step>F</step><octave>3</octave><alter>0</alter></pitch><duration>6</duration><type>eighth</type><voice>2</voice><beam number="1">begin</beam></note><backup><duration>6</duration></backup><note><pitch><step>A</step><octave>3</octave><alter>0</alter></pitch><duration>3</duration><type>eighth</type><voice>3</voice><beam number="1">begin</beam></note><backup><duration>3</duration></backup><note><pitch><step>F</step><octave>3</octave><alter>0</alter></pitch><duration>3</duration><type>eighth</type><voice>1</voice><beam number="1">begin</beam></note><backup><duration>3</duration></backup><note><pitch><step>F</step><octave>3</octave><alter>0</alter></pitch><duration>1</duration><type>eighth</type><voice>2</voice><beam number="1">begin</beam></note><note><pitch><step>C</step><octave>4</octave><alter>0</alter></pitch><duration>12</duration><type>quarter</type><voice>2</voice></note><backup><duration>12</duration></backup><note><pitch><step>C</step><octave>4</octave><alter>0</alter></pitch><duration>6</duration><type>eighth</type><voice>3</voice><beam number="1">begin</beam></note><note><chord /><pitch><step>A</step><octave>3</octave><alter>0</alter></pitch><duration>12</duration><type>quarter</type><voice>3</voice></note><backup><duration>12</duration></backup><note><pitch><step>A</step><octave>3</octave><alter>0</alter></pitch><duration>6</duration><type>eighth</type><voice>1</voice><beam number="1">begin</beam></note><note><chord /><pitch><step>F</step><octave>3</octave><alter>0</alter></pitch><duration>6</duration><type>eighth</type><voice>1</voice><beam number="1">begin</beam></note><note><pitch><step>C</step><octave>4</octave><alter>0</alter></pitch><duration>6</duration><type>eighth</type><voice>1</voice><beam number="1">begin</beam></note><backup><duration>6</duration></backup><note><pitch><step>C</step><octave>4</octave><alter>0</alter></pitch><duration>3</duration><type>eighth</type><voice>2</voice><beam number="1">begin</beam></note><note><chord /><pitch><step>F</step><octave>3</octave><alter>0</alter></pitch><duration>6</duration><type>eighth</type><voice>2</voice><beam number="1">begin</beam></note><backup><duration>6</duration></backup><note><pitch><step>F</step><octave>3</octave><alter>0</alter></pitch><duration>3</duration><type>eighth</type><voice>3</voice><beam number="1">begin</beam></note><note><chord /><pitch><step>F</step><octave>3</octave><alter>0</alter></pitch><duration>12</duration><type>quarter</type><voice>3</voice></note><backup><duration>12</duration></backup><note><pitch><step>F</step><octave>3</octave><alter>0</alter></pitch><duration>3</duration><type>eighth</type><voice>1</voice><beam number="1">begin</beam></note></measure><measure number="2"><attributes><divisions>12</divisions><time><beats>2</beats><beat-type>2</beat-type></time></attributes><note><pitch><step>B</step><octave>3</octave><alter>0</alter></pitch><duration>6</duration><type>eighth</type><voice>1</voice></note><note><chord /><pitch><step>C</step><octave>4</octave><alter>AccidentalTypes.NATURAL</alter></pitch><duration>6</duration><type>eighth</type><voice>1</voice></note><note><rest measure="yes" /><duration>12</duration><voice>1</voice></note><note><rest measure="yes" /><duration>24</duration><voice>1</voice></note><note><rest measure="yes" /><duration>12</duration><voice>1</voice></note><note><pitch><step>B</step><octave>3</octave><alter>0</alter></pitch><duration>0</duration><type>eighth</type><voice>1</voice><beam number="1">begin</beam></note><note><chord /><pitch><step>C</step><octave>4</octave><alter>AccidentalTypes.NATURAL</alter></pitch><duration>0</duration><type>eighth</type><voice>1</voice><beam number="1">begin</beam></note><note><pitch><step>C</step><octave>4</octave><alter>AccidentalTypes.NATURAL</alter></pitch><duration>0</duration><type>eighth</type><voice>1</voice><beam number="1">begin</beam></note><note><pitch><step>B</step><octave>3</octave><alter>0</alter></pitch><duration>1</duration><type>eighth</type><voice>1</voice><beam number="1">begin</beam></note><backup><duration>1</duration></backup><note><pitch><step>B</step><octave>3</octave><alter>0</alter></pitch><duration>0</duration><type>eighth</type><voice>2</voice><beam number="1">begin</beam></note><note><chord /><pitch><step>C</step><octave>4</octave><alter>AccidentalTypes.NATURAL</alter></pitch><duration>1</duration><type>eighth</type><voice>2</voice><beam number="1">begin</beam></note><backup><duration>1</duration></backup><note><rest measure="yes" /><duration>24</duration><voice>3</voice></note><backup><duration>24</duration></backup><note><pitch><step>C</step><octave>4</octave><alter>AccidentalTypes.NATURAL</alter></pitch><duration>0</duration><type>eighth</type><voice>1</voice><beam number="1">begin</beam></note></measure><measure number="3"><attributes><divisions>12</divisions></attributes></measure><measure number="4"><attributes><divisions>12</divisions><time><beats>4</beats><beat-type>4</beat-type></time><clef><sign>G</sign><line>2</line></clef></attributes><note><pitch><step>A</step><octave>5</octave><alter>0</alter></pitch><duration>6</duration><type>eighth</type><voice>1</voice><beam number="1">begin</beam></note><backup><duration>6</duration></backup><note><rest measure="yes" /><duration>24</duration><voice>2</voice></note><backup><duration>24</duration></backup><note><pitch><step>F</step><octave>5</octave><alter>0</alter></pitch><duration>3</duration><type>eighth</type><voice>3</voice><beam number="1">begin</beam></note><backup><duration>3</duration></backup><note><pitch><step>A</step><octave>5</octave><alter>0</alter></pitch><duration>1</duration><type>eighth</type><voice>1</voice><beam number="1">begin</beam></note><note><chord /><pitch><step>D</step><octave>5</octave><alter>0</alter></pitch><duration>3</duration><type>eighth</type><voice>1</voice><beam number="1">begin</beam></note><backup><duration>3</duration></backup><note><pitch><step>F</step><octave>5</octave><alter>0</alter></pitch><duration>1</duration><type>eighth</type><voice>2</voice><beam number="1">begin</beam></note><note><chord /><pitch><step>D</step><octave>5</octave><alter>0</alter></pitch><duration>1</duration><type>eighth</type><voice>2</voice><beam number="1">begin</beam></note><note><pitch><step>A</step><octave>5</octave><alter>0</alter></pitch><duration>3</duration><type>eighth</type><voice>2</voice><beam number="1">begin</beam></note><note><pitch><step>A</step><octave>5</octave><alter>0</alter></pitch><duration>6</duration><type>eighth</type><voice>2</voice><beam number="1">end</beam></note><backup><duration>6</duration></backup><note><pitch><step>A</step><octave>5</octave><alter>0</alter></pitch><duration>3</duration><type>eighth</type><voice>3</voice><beam number="1">begin</beam></note><note><chord /><pitch><step>D</step><octave>5</octave><alter>0</alter></pitch><duration>3</duration><type>eighth</type><voice>3</voice><beam number="1">begin</beam></note><note><chord /><pitch><step>D</step><octave>5</octave><alter>0</alter></pitch><duration>3</duration><type>eighth</type><voice>3</voice><beam number="1">begin</beam></note><note><pitch><step>C</step><octave>6</octave><alter>AccidentalTypes.NATURAL</alter></pitch><duration>6</duration><type>eighth</type><voice>3</voice><beam number="1">begin</beam></note><backup><duration>6</duration></backup><note><pitch><step>C</step><octave>6</octave><alter>AccidentalTypes.NATURAL</alter></pitch><duration>3</duration><type>eighth</type><voice>1</voice><beam number="1">begin</beam></note><note><pitch><step>C</step><octave>6</octave><alter>AccidentalTypes.NATURAL</alter></pitch><duration>6</duration><type>eighth</type><voice>1</voice><beam number="1">begin</beam></note><note><pitch><step>C</step><octave>6</octave><alter>AccidentalTypes.NATURAL</alter></pitch><duration>3</duration><type>eighth</type><voice>1</voice><beam number="1">begin</beam></note><note><pitch><step>D</step><octave>6</octave><alter>0</alter></pitch><duration>6</duration><type>eighth</type><voice>1</voice><beam number="1">begin</beam></note><backup><duration>6</duration></backup><note><pitch><step>D</step><octave>6</octave><alter>0</alter></pitch><duration>3</duration><type>eighth</type><voice>2</voice><beam number="1">begin</beam></note><backup><duration>3</duration></backup><note><pitch><step>A</step><octave>5</octave><alter>0</alter></pitch><duration>3</duration><type>eighth</type><voice>3</voice><beam number="1">begin</beam></note><backup><duration>3</duration></backup><note><pitch><step>A</step><octave>5</octave><alter>0</alter></pitch><duration>1</duration><type>eighth</type><voice>1</voice><beam number="1">begin</beam></note><backup><duration>1</duration></backup><note><pitch><step>F</step><octave>5</octave><alter>0</alter></pitch><duration>1</duration><type>eighth</type><voice>2</voice><beam number="1">begin</beam></note><backup><duration>1</duration></backup><note><pitch><step>A</step><octave>5</octave><alter>0</alter></pitch><duration>0</duration><type>eighth</type><voice>3</voice><beam number="1">begin</beam></note><note><chord /><pitch><step>F</step><octave>5</octave><alter>0</alter></pitch><duration>0</duration><type>eighth</type><voice>3</voice><beam number="1">begin</beam></note><note><rest measure="yes" /><duration>24</duration><voice>3</voice></note><backup><duration>24</duration></backup><note><pitch><step>E</step><octave>6</octave><alter>0</alter></pitch><duration>3</duration><type>eighth</type><voice>1</voice><beam number="1">begin</beam></note><note><pitch><step>E</step><octave>6</octave><alter>0</alter></pitch><duration>6</duration><type>eighth</type><voice>1</voice><beam number="1">begin</beam></note><backup><duration>6</duration></backup><note><pitch><step>E</step><octave>6</octave><alter>0</alter></pitch><duration>3</duration><type>eighth</type><voice>2</voice><beam number="1">begin</beam></note><note><chord /><pitch><step>A</step><octave>5</octave><alter>0</alter></pitch><duration>6</duration><type>eighth</type><voice>2</voice><beam number="1">begin</beam></note><backup><duration>6</duration></backup><note><pitch><step>A</step><octave>5</octave><alter>0</alter></pitch><duration>3</duration><type>eighth</type><voice>3</voice><beam number="1">begin</beam></note><note><pitch><step>E</step><octave>4</octave><alter>0</alter></pitch><duration>12</duration><type>quarter</type><voice>3</voice></note></measure><measure number="5"><attributes><divisions>12</divisions></attributes><note><rest measure="yes" /><duration>24</duration><voice>1</voice></note><backup><duration>24</duration></backup><note><pitch><step>A</step><octave>5</octave><alter>0</alter></pitch><duration>6</duration><type>eighth</type><voice>2</voice><beam number="1">begin</beam></note></measure><measure number="6"><attributes><divisions>12</divisions></attributes></measure><measure number="7"><attributes><divisions>12</divisions><time><beats>4</beats><beat-type>4</beat-type></time></attributes><note><pitch><step>C</step><octave>6</octave><alter>0</alter></pitch><duration>6</duration><type>eighth</type><voice>1</voice><beam number="1">begin</beam></note><note><pitch><step>B</step><octave>5</octave><alter>0</alter></pitch><duration>12</duration><type>quarter</type><voice>1</voice></note><note><pitch><step>G</step><octave>5</octave><alter>AccidentalTypes.NATURAL</alter></pitch><duration>12</duration><type>quarter</type><voice>1</voice></note><note><pitch><step>G</step><octave>5</octave><alter>AccidentalTypes.NATURAL</alter></pitch><duration>12</duration><type>quarter</type><voice>1</voice></note><backup><duration>12</duration></backup><note><pitch><step>G</step><octave>5</octave><alter>AccidentalTypes.NATURAL</alter></pitch><duration>6</duration><type>eighth</type><voice>2</voice><beam number="1">end</beam></note><note><pitch><step>A</step><octave>5</octave><alter>0</alter></pitch><duration>6</duration><type>eighth</type><voice>2</voice><beam number="1">begin</beam></note><note><pitch><step>A</step><octave>5</octave><alter>0</alter></pitch><duration>12</duration><type>quarter</type><voice>2</voice></note></measure><measure number="8"><attributes><divisions>12</divisions></attributes></measure><measure number="9"><attributes><divisions>12</divisions></attributes></measure><measure number="10"><attributes><divisions>12</divisions></attributes></measure><measure number="11"><attributes><divisions>12</divisions></attributes></measure><measure number="12"><attributes><divisions>12</divisions></attributes></measure><measure number="13"><attributes><divisions>12</divisions><time><beats>4</beats><beat-type>4</beat-type></time><clef><sign>F</sign><line>4</line></clef></attributes><note><pitch><step>D</step><octave>4</octave><alter>0</alter></pitch><duration>24</duration><type>half</type><voice>1</voice></note><note><rest measure="yes" /><duration>24</duration><voice>1</voice></note><backup><duration>24</duration></backup><note><pitch><step>E</step><octave>4</octave><alter>0</alter></pitch><duration>3</duration><type>eighth</type><voice>2</voice><beam number="1">continue</beam></note><note><pitch><step>E</step><octave>4</octave><alter>0</alter></pitch><duration>0</duration><type>eighth</type><voice>2</voice><beam number="1">begin</beam></note><note><chord /><pitch><step>C</step><octave>4</octave><alter>0</alter></pitch><duration>3</duration><type>eighth</type><voice>2</voice><beam number="1">continue</beam></note><backup><duration>3</duration></backup><note><pitch><step>C</step><octave>4</octave><alter>0</alter></pitch><duration>0</duration><type>eighth</type><voice>3</voice><beam number="1">begin</beam></note><note><chord /><pitch><step>C</step><octave>4</octave><alter>0</alter></pitch><duration>0</duration><type>eighth</type><voice>3</voice><beam number="1">end</beam></note><note><pitch><step>F</step><octave>4</octave><alter>0</alter></pitch><duration>24</duration><type>half</type><voice>3</voice></note><note><pitch><step>F</step><octave>4</octave><alter>0</alter></pitch><duration>24</duration><type>half</type><voice>3</voice></note><note><chord /><pitch><step>D</step><octave>4</octave><alter>0</alter></pitch><duration>24</duration><type>half</type><voice>3</voice></note></measure><measure number="14"><attributes><divisions>12</divisions><clef><sign>G</sign><line>2</line></clef></attributes><note><rest measure="yes" /><duration>24</duration><voice>1</voice></note><note><rest measure="yes" /><duration>24</duration><voice>1</voice></note><backup><duration>24</duration></backup><note><pitch><step>C</step><octave>6</octave><alter>0</alter></pitch><duration>6</duration><type>eighth</type><voice>2</voice><beam number="1">begin</beam></note><backup><duration>6</duration></backup><note><pitch><step>C</step><octave>6</octave><alter>0</alter></pitch><duration>0</duration><type>eighth</type><voice>3</voice><beam number="1">continue</beam></note><note><rest measure="yes" /><duration>24</duration><voice>3</voice></note><backup><duration>24</duration></backup><note><pitch><step>C</step><octave>6</octave><alter>0</alter></pitch><duration>0</duration><type>eighth</type><voice>1</voice><beam number="1">begin</beam></note><note><rest measure="yes" /><duration>24</duration><voice>1</voice></note><backup><duration>24</duration></backup><note><pitch><step>C</step><octave>6</octave><alter>0</alter></pitch><duration>6</duration><type>eighth</type><voice>2</voice><beam number="1">begin</beam></note><note><rest measure="yes" /><duration>24</duration><voice>2</voice></note><backup><duration>24</duration></backup><note><pitch><step>C</step><octave>6</octave><alter>0</alter></pitch><duration>0</duration><type>eighth</type><voice>3</voice><beam number="1">begin</beam></note></measure><measure number="15"><attributes><divisions>12</divisions></attributes></measure><measure number="16"><attributes><divisions>12</divisions><time><beats>4</beats><beat-type>4</beat-type></time><clef><sign>F</sign><line>4</line></clef></attributes><note><pitch><step>E</step><octave>4</octave><alter>0</alter></pitch><duration>12</duration><type>quarter</type><voice>1</voice></note><note><pitch><step>E</step><octave>4</octave><alter>0</alter></pitch><duration>12</duration><type>quarter</type><voice>1</voice></note><note><pitch><step>E</step><octave>4</octave><alter>0</alter></pitch><duration>6</duration><type>eighth</type><voice>1</voice><beam number="1">begin</beam></note><note><rest measure="yes" /><duration>24</duration><voice>1</voice></note><backup><duration>24</duration></backup><note><pitch><step>E</step><octave>4</octave><alter>0</alter></pitch><duration>6</duration><type>eighth</type><voice>2</voice><beam number="1">begin</beam></note></measure><measure number="17"><attributes><divisions>12</divisions></attributes><note><pitch><step>C</step><octave>4</octave><alter>0</alter></pitch><duration>3</duration><type>eighth</type><voice>1</voice><beam number="1">begin</beam></note><backup><duration>3</duration></backup><note><pitch><step>E</step><octave>4</octave><alter>0</alter></pitch><duration>6</duration><type>eighth</type><voice>2</voice><beam number="1">begin</beam></note><backup><duration>6</duration></backup><note><pitch><step>E</step><octave>4</octave><alter>0</alter></pitch><duration>1</duration><type>eighth</type><voice>3</voice><beam number="1">continue</beam></note><backup><duration>1</duration></backup><note><pitch><step>E</step><octave>4</octave><alter>0</alter></pitch><duration>0</duration><type>eighth</type><voice>1</voice><beam number="1">continue</beam></note><note><pitch><step>E</step><octave>4</octave><alter>0</alter></pitch><duration>12</duration><type>quarter</type><voice>1</voice></note></measure><measure number="18"><attributes><divisions>12</divisions></attributes><note><pitch><step>E</step><octave>4</octave><alter>0</alter></pitch><duration>12</duration><type>quarter</type><voice>1</voice></note><note><pitch><step>D</step><octave>4</octave><alter>0</alter></pitch><duration>12</duration><type>quarter</type><voice>1</voice></note><note><pitch><step>D</step><octave>4</octave><alter>0</alter></pitch><duration>12</duration><type>quarter</type><voice>1</voice></note><note><pitch><step>E</step><octave>4</octave><alter>0</alter></pitch><duration>12</duration><type>quarter</type><voice>1</voice></note><backup><duration>12</duration></backup><note><pitch><step>E</step><octave>4</octave><alter>0</alter></pitch><duration>3</duration><type>eighth</type><voice>2</voice><beam number="1">end</beam></note><note><pitch><step>C</step><octave>4</octave><alter>0</alter></pitch><duration>6</duration><type>eighth</type><voice>2</voice></note><note><chord /><pitch><step>E</step><octave>4</octave><alter>0</alter></pitch><duration>6</duration><type>eighth</type><voice>2</voice><beam number="1">begin</beam></note><note><pitch><step>E</step><octave>4</octave><alter>0</alter></pitch><duration>12</duration><type>quarter</type><voice>2</voice></note><note><pitch><step>E</step><octave>4</octave><alter>0</alter></pitch><duration>12</duration><type>quarter</type><voice>2</voice></note><note><pitch><step>D</step><octave>4</octave><alter>0</alter></pitch><duration>6</duration><type>eighth</type><voice>2</voice></note><backup><duration>6</duration></backup><note><pitch><step>D</step><octave>4</octave><alter>0</alter></pitch><duration>1</duration><type>eighth</type><voice>3</voice><beam number="1">begin</beam></note><note><chord /><pitch><step>E</step><octave>4</octave><alter>0</alter></pitch><duration>3</duration><type>eighth</type><voice>3</voice><beam number="1">begin</beam></note><backup><duration>3</duration></backup><note><pitch><step>E</step><octave>4</octave><alter>0</alter></pitch><duration>6</duration><type>eighth</type><voice>1</voice><beam number="1">begin</beam></note><backup><duration>6</duration></backup><note><pitch><step>E</step><octave>4</octave><alter>0</alter></pitch><duration>1</duration><type>eighth</type><voice>2</voice><beam number="1">begin</beam></note><note><pitch><step>E</step><octave>4</octave><alter>0</alter></pitch><duration>12</duration><type>quarter</type><voice>2</voice></note><note><pitch><step>D</step><octave>4</octave><alter>0</alter></pitch><duration>3</duration><type>eighth</type><voice>2</voice><beam number="1">begin</beam></note><backup><duration>3</duration></backup><note><pitch><step>E</step><octave>4</octave><alter>0</alter></pitch><duration>12</duration><type>quarter</type><voice>3</voice></note><backup><duration>12</duration></backup><note><pitch><step>E</step><octave>4</octave><alter>0</alter></pitch><duration>1</duration><type>eighth</type><voice>1</voice><beam number="1">end</beam></note></measure><measure number="19"><attributes><divisions>12</divisions></attributes></measure><measure number="20"><attributes><divisions>12</divisions></attributes></measure><measure number="21"><attributes><divisions>12</divisions><clef><sign>G</sign><line>2</line></clef></attributes><note><pitch><step>A</step><octave>5</octave><alter>0</alter></pitch><duration>1</duration><type>eighth</type><voice>1</voice><beam number="1">begin</beam></note><backup><duration>1</duration></backup><note><pitch><step>A</step><octave>5</octave><alter>0</alter></pitch><duration>0</duration><type>eighth</type><voice>2</voice><beam number="1">begin</beam></note><note><rest measure="yes" /><duration>24</duration><voice>2</voice></note><backup><duration>24</duration></backup><note><pitch><step>C</step><octave>6</octave><alter>0</alter></pitch><duration>0</duration><type>eighth</type><voice>3</voice><beam number="1">begin</beam></note><note><rest measure="yes" /><duration>24</duration><voice>3</voice></note><backup><duration>24</duration></backup><note><pitch><step>A</step><octave>5</octave><alter>0</alter></pitch><duration>1</duration><type>eighth</type><voice>1</voice><beam number="1">begin</beam></note><note><pitch><step>C</step><octave>6</octave><alter>0</alter></pitch><duration>0</duration><type>eighth</type><voice>1</voice><beam number="1">begin</beam></note><note><rest measure="yes" /><duration>24</duration><voice>1</voice></note><backup><duration>24</duration></backup><note><pitch><step>C</step><octave>6</octave><alter>0</alter></pitch><duration>0</duration><type>eighth</type><voice>2</voice><beam number="1">begin</beam></note></measure><measure number="22"><attributes><divisions>12</divisions><time><beats>4</beats><beat-type>4</beat-type></time><clef><sign>F</sign><line>4</line></clef></attributes><note><pitch><step>E</step><octave>4</octave><alter>0</alter></pitch><duration>0</duration><type>eighth</type><voice>1</voice><beam number="1">begin</beam></note><note><rest measure="yes" /><duration>24</duration><voice>1</voice></note><note><pitch><step>E</step><octave>4</octave><alter>0</alter></pitch><duration>0</duration><type>eighth</type><voice>1</voice><beam number="1">begin</beam></note><note><chord /><pitch><step>E</step><octave>4</octave><alter>0</alter></pitch><duration>0</duration><type>eighth</type><voice>1</voice><beam number="1">begin</beam></note><note><rest measure="yes" /><duration>24</duration><voice>1</voice></note><note><pitch><step>F</step><octave>3</octave><alter>0</alter></pitch><duration>12</duration><type>quarter</type><voice>1</voice></note><backup><duration>12</duration></backup><note><pitch><step>F</step><octave>3</octave><alter>0</alter></pitch><duration>0</duration><type>eighth</type><voice>2</voice><beam number="1">begin</beam></note><note><pitch><step>D</step><octave>4</octave><alter>0</alter></pitch><duration>1</duration><type>eighth</type><voice>2</voice><beam number="1">begin</beam></note><note><rest measure="yes" /><duration>24</duration><voice>2</voice></note><backup><duration>24</duration></backup><note><pitch><step>A</step><octave>3</octave><alter>0</alter></pitch><duration>12</duration><type>quarter</type><voice>3</voice></note></measure><measure number="23"><attributes><divisions>12</divisions></attributes><note><pitch><step>D</step><octave>4</octave><alter>0</alter></pitch><duration>3</duration><type>eighth</type><voice>1</voice><beam number="1">begin</beam></note><note><pitch><step>E</step><octave>4</octave><alter>0</alter></pitch><duration>3</duration><type>eighth</type><voice>1</voice><beam number="1">end</beam></note></measure><measure number="24"><attributes><divisions>12</divisions></attributes><note><pitch><step>E</step><octave>4</octave><alter>0</alter></pitch><duration>3</duration><type>eighth</type><voice>1</voice><beam number="1">end</beam></note><note><pitch><step>F</step><octave>3</octave><alter>0</alter></pitch><duration>3</duration><type>eighth</type><voice>1</voice><beam number="1">begin</beam></note><note><pitch><step>D</step><octave>4</octave><alter>0</alter></pitch><duration>6</duration><type>eighth</type><voice>1</voice><beam number="1">begin</beam></note><note><chord /><pitch><step>D</step><octave>4</octave><alter>0</alter></pitch><duration>6</duration><type>eighth</type><voice>1</voice><beam number="1">begin</beam></note><note><rest measure="yes" /><duration>24</duration><voice>1</voice></note><backup><duration>24</duration></backup><note><pitch><step>A</step><octave>3</octave><alter>0</alter></pitch><duration>12</duration><type>quarter</type><voice>2</voice></note><backup><duration>12</duration></backup><note><pitch><step>A</step><octave>3</octave><alter>0</alter></pitch><duration>3</duration><type>eighth</type><voice>3</voice><beam number="1">begin</beam></note><note><pitch><step>D</step><octave>4</octave><alter>0</alter></pitch><duration>3</duration><type>eighth</type><voice>3</voice><beam number="1">begin</beam></note><note><pitch><step>E</step><octave>4</octave><alter>0</alter></pitch><duration>1</duration><type>eighth</type><voice>3</voice><beam number="1">continue</beam></note><note><pitch><step>E</step><octave>4</octave><alter>0</alter></pitch><duration>0</duration><type>eighth</type><voice>3</voice><beam number="1">begin</beam></note><note><pitch><step>D</step><octave>3</octave><alter>0</alter></pitch><duration>0</duration><type>eighth</type><voice>3</voice><beam number="1">begin</beam></note><note><pitch><step>B</step><octave>3</octave><alter>AccidentalTypes.NATURAL</alter></pitch><duration>1</duration><type>eighth</type><voice>3</voice><beam number="1">begin</beam></note><backup><duration>1</duration></backup><note><pitch><step>B</step><octave>3</octave><alter>AccidentalTypes.NATURAL</alter></pitch><duration>0</duration><type>eighth</type><voice>1</voice><beam number="1">continue</beam></note><note><pitch><step>F</step><octave>3</octave><alter>0</alter></pitch><duration>0</duration><type>eighth</type><voice>1</voice><beam number="1">begin</beam></note><note><pitch><step>B</step><octave>3</octave><alter>AccidentalTypes.NATURAL</alter></pitch><duration>12</duration><type>quarter</type><voice>1</voice></note></measure><measure number="25"><attributes><divisions>12</divisions></attributes><note><rest measure="yes" /><duration>24</duration><voice>1</voice></note><backup><duration>24</duration></backup><note><pitch><step>A</step><octave>3</octave><alter>0</alter></pitch><duration>6</duration><type>eighth</type><voice>2</voice><beam number="1">end</beam></note><backup><duration>6</duration></backup><note><pitch><step>A</step><octave>3</octave><alter>0</alter></pitch><duration>0</duration><type>eighth</type><voice>3</voice><beam number="1">continue</beam></note><note><pitch><step>G</step><octave>3</octave><alter>0</alter></pitch><duration>6</duration><type>eighth</type><voice>3</voice><beam number="1">begin</beam></note><backup><duration>6</duration></backup><note><rest measure="yes" /><duration>24</duration><voice>1</voice></note><backup><duration>24</duration></backup><note><pitch><step>G</step><octave>3</octave><alter>0</alter></pitch><duration>0</duration><type>eighth</type><voice>2</voice><beam number="1">begin</beam></note><note><pitch><step>D</step><octave>3</octave><alter>0</alter></pitch><duration>3</duration><type>eighth</type><voice>2</voice><beam number="1">begin</beam></note><backup><duration>3</duration></backup><note><pitch><step>D</step><octave>3</octave><alter>0</alter></pitch><duration>0</duration><type>eighth</type><voice>3</voice><beam number="1">begin</beam></note><note><pitch><step>B</step><octave>3</octave><alter>0</alter></pitch><duration>1</duration><type>eighth</type><voice>3</voice><beam number="1">begin</beam></note><backup><duration>1</duration></backup><note><pitch><step>B</step><octave>3</octave><alter>0</alter></pitch><duration>0</duration><type>eighth</type><voice>1</voice><beam number="1">continue</beam></note><note><pitch><step>F</step><octave>3</octave><alter>0</alter></pitch><duration>1</duration><type>eighth</type><voice>1</voice><beam number="1">begin</beam></note><note><pitch><step>B</step><octave>3</octave><alter>0</alter></pitch><duration>1</duration><type>eighth</type><voice>1</voice><beam number="1">end</beam></note></measure><measure number="26"><attributes><divisions>12</divisions></attributes></measure><measure number="27"><attributes><divisions>12</divisions></attributes></measure></part></score-partwise>